# xmcd
#
# Track frame offsets: 
#        150
#        13655
#        27830
#        40002
#        52770
#        65370
#        78315
#        91592
#        103390
#        115517
#        129945
#        142225
#        155705
#        168967
#        182690
#        196032
#        207940
#        221015
#        235135
#        248440
#        261985
#        275922
#        290907
#        303860
#        316745
#        331682
#
# Disc length: 4615 seconds
#
# Revision: 0
# Processed by: cddbd v1.5.1PL0 Copyright (c) Steve Scherf et al.
# Submitted via: ExactAudioCopy v0.95a5
#
DISCID=6512051a
DTITLE=Various Artist - Rare Paramount Blues (1926-1929)
DYEAR=1900
DGENRE=
TTITLE0=Sweet Papa Stovepipe - Mama's Angel Child
TTITLE1=Sweet Papa Stovepipe - All Birds Look Like Chicken to Me
TTITLE2=Charlie "Dad" Nelson - Cotton Field Blues
TTITLE3=Charlie "Dad" Nelson - Red River Blues
TTITLE4=Charlie "Dad" Nelson - Coon Can Blues
TTITLE5=Charlie "Dad" Nelson - Mississippi Strut
TTITLE6=Charlie "Dad" Nelson - Cleveland Strut
TTITLE7=Charlie "Dad" Nelson - Scoville Ave. Blues
TTITLE8=Charlie "Dad" Nelson - Michigan Shoe Blues
TTITLE9=Charlie "Dad" Nelson - Traveling Daddy
TTITLE10=Ruby Paul - Red Letter Blues
TTITLE11=Ruby Paul - Last Farewell Blues
TTITLE12=Jack O'Diamonds - The Ducks Yas Yas
TTITLE13=Jack O'Diamonds - Smiling Blues
TTITLE14=Lonnie Clark - Broke Down Engine
TTITLE15=Lonnie Clark - Down in Tennessee
TTITLE16=Smoky Harrison - Hop Head Blues
TTITLE17=Smoky Harrison - Iggly Oggly Blues
TTITLE18=Smoky Harrison - St. Peter's Blues -- Part 1
TTITLE19=Smoky Harrison - St. Peter's Blues -- Part 2
TTITLE20=Paramount All Stars - Hometown Skiffle -- Part 1
TTITLE21=Paramount All Stars - Hometown Skiffle -- Part 2
TTITLE22=Too Bad Boys - Corrine Corrina Blues
TTITLE23=Too Bad Boys - Ballin' the Jack
TTITLE24=Freddie Brown - Raised in the Alley Blues
TTITLE25=Freddie Brown - Whip It to a Jelly
EXTD=
EXTT0=
EXTT1=
EXTT2=
EXTT3=
EXTT4=
EXTT5=
EXTT6=
EXTT7=
EXTT8=
EXTT9=
EXTT10=
EXTT11=
EXTT12=
EXTT13=
EXTT14=
EXTT15=
EXTT16=
EXTT17=
EXTT18=
EXTT19=
EXTT20=
EXTT21=
EXTT22=
EXTT23=
EXTT24=
EXTT25=
PLAYORDER=
